<svg xmlns="http://www.w3.org/2000/svg" viewBox="0 0 107.1 73.87"><path d="M11,54.92.78,54.76l.07-4.59,1.93,0,0,2.52,2.1,0,0-2,1.83,0,0,2,4.36.07ZM6.09,48.38c-3.8-.61-5.06-1.52-4.73-3.62S3.19,42.2,7,42.81c3.36.54,5,1.4,4.7,3.61S9.46,48.92,6.09,48.38Zm.55-3.44c-2.7-.43-3.35-.4-3.43.12s.53.75,3.23,1.18c3,.48,3.41.32,3.48-.11s-.31-.71-3.28-1.19Zm6.82-6-4-.47-.15.44,3.76,1.25-.65,2-9.7-3.22.78-2.37c.57-1.7,1.51-2.43,3.58-1.74A2.57,2.57,0,0,1,9,36.44l5.18.41Zm-5.74-.75c.21-.62,0-.92-1.07-1.27-1.3-.43-1.48.1-1.57.39L5,37.49l2.65.88Zm7.48-3.46L7.8,31l-.63,1.24-1.71-.87L7.66,27l1.71.87-.63,1.25,7.4,3.76ZM11,21.92l1.18-1.66,6.11,4.36c1.57,1.11,1.77,2.31.73,3.76s-2.21,1.63-3.78.52L9.14,24.54l1.2-1.68,6.24,4.45c.53.38.84.33,1.05.05s.15-.61-.38-1Zm13.23.33-5.19-2.42,0,0,3.82,3.79-1.22,1.24-7.26-7.21,1.39-1.4,4.41,2.14,0,0-3.28-3.26,1.24-1.25,7.25,7.21Zm2.54-2.32-6-8.23L24.43,9l1.14,1.55-2,1.49,1.24,1.7,1.63-1.2L27.5,14l-1.63,1.2,1.44,2,2.15-1.58,1.13,1.55Zm8.27-5.3L31,5.25l4.21-1.82L36,5.19l-2.31,1,.83,1.94,1.86-.8L37.08,9l-1.86.8,1.73,4Zm8.42-3-.81-2.06-1.23.33L41.81,12l-2,.56L38.61,2.32l2.55-.7L45.49,11ZM41.13,8.05,42,7.82l-1.42-3.6-.07,0Zm6.53,2.71-3-9.94L46.83.55,48.33,7h0L48.24.39,50.42.12,50,10.48Zm5-5.61c.12-3.84.86-5.22,3-5.15s2.78,1.49,2.65,5.33c-.11,3.4-.75,5.19-3,5.12S52.58,8.55,52.69,5.15Zm3.47.11c.09-2.73,0-3.38-.55-3.39s-.67.62-.76,3.35c-.1,3,.12,3.42.55,3.44S56.06,8.27,56.16,5.26Zm6.82,6,0-4-.46-.09L61.73,11l-2-.39,1.95-10,2.45.47c1.76.35,2.6,1.19,2.18,3.33a2.6,2.6,0,0,1-1.4,2.11l.26,5.18Zm0-5.79c.64.13.92-.15,1.13-1.23.26-1.34-.29-1.45-.6-1.51l-.18,0-.53,2.74Zm8.71.58c.14-.51.22-1.1-.28-1.29a.5.5,0,0,0-.68.38c-.65,1.8,2.14,3.4,1.1,6.25a2.44,2.44,0,0,1-3,1.7,1.56,1.56,0,0,1-.41-.15c-1.77-.64-2-1.77-1.48-3.47L68.8,10c-.21.76-.23,1.18.25,1.35s.64,0,.81-.51c.66-1.83-2-3.42-1-6.19A2.26,2.26,0,0,1,71.57,3,2.07,2.07,0,0,1,72,3.1c1.82.66,1.86,2,1.47,3.43Zm4.52,10.47,4.49-7-1.18-.76,1-1.61,4.09,2.62-1,1.62-1.17-.76-4.49,7Zm6.49,4.84,2.86-3.27-.91-.8L81.8,20.56,80.25,19.2,87,11.5l1.56,1.37-2.67,3,.91.8,2.67-3L91,15,84.24,22.7ZM85.46,24l7.84-6.57,3,3.52-1.48,1.24-1.62-1.93-1.61,1.35,1.3,1.55-1.41,1.18-1.3-1.55-1.87,1.56,1.71,2L88.5,27.62Zm5.82,7.87,9.16-4.55,1,2.06c.92,1.85.69,3-1.15,3.95a2.11,2.11,0,0,1-2.38-.09l0,0c.07,1-.46,1.63-1.51,2.15-2.26,1.12-3.27.16-4.08-1.47Zm2.83,1.43c.22.46.6.54,1.44.12s1-.77.77-1.3l-.2-.4-2.25,1.12Zm3.71-2c.28.55.7.54,1.4.2s.82-.74.62-1.13l-.2-.4-2,1Zm1.12,4.85c3.68-1.15,5.22-.9,5.85,1.13s-.49,3.11-4.16,4.26c-3.25,1-5.15,1-5.82-1.13S95.7,37.18,98.94,36.16Zm1,3.32c2.61-.82,3.18-1.14,3-1.63s-.81-.44-3.42.38c-2.87.9-3.2,1.24-3.07,1.65S97.11,40.38,100,39.48Zm-3.91,5.14,10.1-1.55.31,2-8.2,1.26.39,2.52-1.9.29Zm.78,6.19,10.22-.13,0,2.18c0,2.33-1.07,3.46-5,3.51-3.19,0-5.22-.42-5.25-3.19Zm2,2.47c0,.75,1,.95,3.26.93,2.67,0,3-.5,3-1.14v-.21l-6.29.08Zm-92.3,16c-.06,2.53-.67,4.62-3.21,4.62-3,0-3.34-2.6-3.34-6.43,0-2.87.16-6.35,3.31-6.35C6,61.09,6.42,63,6.48,65.48H4.13c-.06-1.19-.21-2.06-.72-2.06s-.76.82-.76,4c0,3.66.15,4.18.76,4.18s.73-1,.79-2.37Zm6.71,4.48V68.42H11.78v5.31H9.26V61.23h2.52v4.94h1.48V61.23h2.49v12.5ZM18.5,67.5c0-4.7.85-6.41,3.45-6.41S25.4,62.8,25.4,67.5c0,4.16-.72,6.37-3.45,6.37S18.5,71.66,18.5,67.5Zm4.25,0c0-3.35-.17-4.13-.8-4.13s-.8.78-.8,4.13c0,3.67.28,4.17.8,4.17S22.75,71.17,22.75,67.5Zm5.11,0c0-4.7.86-6.41,3.45-6.41s3.45,1.71,3.45,6.41c0,4.16-.71,6.37-3.45,6.37S27.86,71.66,27.86,67.5Zm4.25,0c0-3.35-.17-4.13-.8-4.13s-.8.78-.8,4.13c0,3.67.28,4.17.8,4.17S32.11,71.17,32.11,67.5Zm8.81-2.91c-.05-.64-.21-1.36-.85-1.36-.46,0-.63.32-.63.72,0,2.33,3.86,3,3.86,6.71a3,3,0,0,1-3.25,3.21c-2.3,0-3-1.22-3.15-3.38l2.33-.17c.07,1,.23,1.44.85,1.44.44,0,.72-.31.72-.92,0-2.39-3.76-3.08-3.76-6.69a2.77,2.77,0,0,1,3-3.06c2.37,0,3,1.55,3.12,3.32Zm5,9.14V61.23h5.61v2.35H48.44v2.58h2.47V68.4H48.44v3h3.25v2.35Zm18.3,0-.77-7.38h0l-.61,7.38H60.26l-1.95-12.5h2.42l.74,7.26h0l.77-7.26h2.38l.85,7.26h0l.66-7.26h2.4l-1.84,12.5Zm6.77,0V61.23h2.54v12.5ZM80,64.59c-.05-.64-.2-1.36-.85-1.36-.45,0-.62.32-.62.72,0,2.33,3.86,3,3.86,6.71a3,3,0,0,1-3.26,3.21c-2.29,0-3-1.22-3.15-3.38l2.34-.17c.07,1,.22,1.44.85,1.44.43,0,.71-.31.71-.92,0-2.39-3.76-3.08-3.76-6.69a2.78,2.78,0,0,1,3-3.06c2.37,0,3,1.55,3.11,3.32Zm5,9.14V61.23h5.61v2.35H87.56v2.58H90V68.4H87.56v3h3.26v2.35Zm8.49,0V61.23h2.53V71.38h3.11v2.35Zm8.44,0v-5l-2.38-7.54h2.63l1,4.39h0l1-4.39h2.62l-2.38,7.56v4.94ZM51.26,30.93c0,2.31-2.11,4-4.83,4-3.53,0-5.69-2.46-5.69-6.16,0-5.43,5.69-9.74,14.16-9.74,6.25,0,9.18,1,9.89,3.95C66,27.7,68.38,27.75,68.38,30c0,3.54-4.3,4-10.15,4.51-1.74.1-2.41.51-2.41,1.23,0,.56.41.72,1.08.72h.36c.66,0,1.18.46,1.18,1.59,0,1.54-1.8,3.38-4.26,3.38s-3.54-1.23-3.54-2.77c0-4.46,8.36-6.3,8.36-11.33,0-3.28-3.38-5.74-7.39-5.74-3.38,0-5.28,1.89-5.28,5.43a1.41,1.41,0,0,0,1.39,1.59h1.74C50.69,28.62,51.26,29.34,51.26,30.93Zm2.2,21.54c-2.31,0-5.59-2.77-5.59-4.77,0-2.15,3.08-4.77,5.59-4.77S59,45.55,59,47.7C59,49.7,55.72,52.47,53.46,52.47Z" fill="#e0d2f9"/></svg>