<svg xmlns="http://www.w3.org/2000/svg" viewBox="0 0 106.01 73.09"><path d="M0,73V62.49H4.7v2H2.12v2.16H4.19V68.5H2.12V73Zm6.4-5.23c0-3.94.71-5.37,2.89-5.37s2.89,1.43,2.89,5.37c0,3.49-.6,5.35-2.89,5.35S6.4,71.23,6.4,67.74Zm3.56,0c0-2.8-.15-3.46-.67-3.46s-.68.66-.68,3.46c0,3.08.24,3.51.68,3.51S10,70.82,10,67.74ZM17.9,73l-.83-4.06h-.48V73H14.48V62.49H17c1.84,0,2.85.68,2.85,2.92a2.66,2.66,0,0,1-1,2.39L20.16,73Zm-1.12-5.83c.67,0,.89-.33.89-1.46,0-1.4-.57-1.4-.89-1.4h-.19v2.86ZM23.11,73V64.46H21.68v-2h5v2H25.23V73ZM32,62.49h2.09v7.69c0,2-.87,2.85-2.7,2.85s-2.69-.88-2.69-2.85V62.49h2.12v7.85c0,.67.22.91.59.91S32,71,32,70.34ZM40.37,73l-2-5.52h0V73H36.57V62.49h2l1.63,4.74h0V62.49h1.81V73Zm4.23,0V62.49h4.7v2H46.72v2.16h2.07V68.5H46.72V71h2.73v2Zm14.57,0v-.69h0a1.91,1.91,0,0,1-1.62.81c-1.37,0-2.23-.94-2.23-5.39,0-2.6.35-5.33,3-5.33,2.38,0,2.66,1.9,2.7,3.68H59c0-.88-.18-1.72-.73-1.72s-.73.56-.73,3.37,0,3.5.7,3.5c.5,0,.7-.6.7-1.41,0-.13,0-.35,0-.5h-.73V67.52h2.74V73Zm7.61,0L66,68.91h-.48V73H63.36V62.49h2.56c1.84,0,2.85.68,2.85,2.92a2.66,2.66,0,0,1-1,2.39L69,73Zm-1.12-5.83c.67,0,.89-.33.89-1.46,0-1.4-.57-1.4-.89-1.4h-.19v2.86ZM74.43,73l-.25-2.26h-1.3L72.66,73H70.5l1.62-10.48h2.72L76.58,73Zm-1.36-4.13H74l-.44-4h-.07ZM82.36,73l-2-5.52h0V73H78.56V62.49h2l1.63,4.74h0V62.49h1.81V73Zm5.17,0V64.46H86.09v-2h5v2H89.64V73Zm5.59,0V62.49h4.7v2H95.24v2.16h2.07V68.5H95.24V71H98v2Zm7.12,0V62.49h2.24c2.39,0,3.53,1.13,3.53,5.14,0,3.27-.5,5.34-3.34,5.34Zm2.56-2c.77,0,1-1,1-3.32,0-2.75-.47-3.13-1.12-3.13h-.22V71ZM10,51.89l-3.7-.1L.63,53.41l.05-2L4,50.81v0L.73,49.93l.06-2L6.38,49.9l3.69.1Zm-4.41-5C2.14,46.29,1,45.45,1.3,43.54S3,41.22,6.44,41.79c3.07.51,4.6,1.31,4.27,3.32S8.66,47.38,5.6,46.87Zm.52-3.13c-2.46-.41-3.06-.38-3.14.08s.48.69,2.94,1.1c2.7.45,3.11.31,3.18-.07s-.28-.66-3-1.11Zm-2.7-8.25L4,33.72l6.52,2.13c1.67.54,2.17,1.52,1.66,3.07S10.69,41,9,40.41L2.51,38.28l.58-1.79,6.65,2.17c.57.18.83.06.93-.25s0-.57-.6-.75Zm11.43-3.1-3.57-.95-.19.39,3.23,1.61-.83,1.67L5.14,31l1-2c.73-1.47,1.67-2,3.45-1.11a2.36,2.36,0,0,1,1.51,1.74l4.62,1ZM9.76,31c.27-.53.09-.84-.81-1.29-1.12-.55-1.34-.1-1.47.16L7.41,30l2.27,1.14Zm9.62-5.59-7-6.15,2.76-3.15,1.32,1.16L14.92,19l1.44,1.27,1.22-1.39L18.84,20l-1.21,1.39,3,2.62Zm-.25-13,1.4-1.22L25,16.31c1.15,1.33,1.07,2.43-.16,3.49s-2.32,1-3.46-.35l-4.49-5.17L18.33,13l4.58,5.29c.4.45.68.48.92.27s.27-.51-.12-1Zm9.59,4.39L24.58,10.4l-1.07.7-1-1.47L26.26,7.2l1,1.47-1.06.7,4.14,6.35Zm2.41-12,1.68-.8,2.93,6.19c.75,1.59.38,2.63-1.09,3.32s-2.5.32-3.25-1.27L28.48,6l1.7-.8,3,6.32c.26.54.52.65.82.51s.39-.42.14-1Zm10.12,6.18L39.49,7.63l-.41.13,1.05,3.46-1.8.54L35.64,2.82l2.18-.66C39.39,1.69,40.42,2,41,3.92a2.39,2.39,0,0,1-.23,2.3l2.41,4.08ZM38.79,6.2c.57-.17.67-.52.38-1.47-.36-1.2-.84-1.05-1.12-1l-.16.05.74,2.44Zm5.6,3.87L43,.85,47.12.21,47.38,2l-2.27.35.29,1.9,1.82-.28.26,1.66-1.83.27L46,8.05l2.4-.36.27,1.73Zm10.86-.78L56.14,0,58,.18l-.72,7.55L59.61,8l-.17,1.74Zm6.29-4c.82-3.42,1.74-4.51,3.62-4.06s2.21,1.84,1.39,5.26c-.72,3-1.62,4.5-3.61,4S60.82,8.34,61.54,5.32Zm3.09.74c.58-2.43.59-3,.13-3.14s-.71.43-1.3,2.86c-.63,2.67-.52,3.08-.14,3.17S64,8.73,64.63,6.06Zm3.78,1.05c1.32-3.25,2.39-4.2,4.19-3.47s1.91,2.15.59,5.4C72,11.92,70.91,13.25,69,12.49S67.25,10,68.41,7.11ZM71.35,8.3c.94-2.31,1-2.9.6-3.08s-.77.32-1.71,2.63c-1,2.55-1,3-.62,3.12s.7-.12,1.73-2.67Zm4.07,7.3,1.2-3.9-.8.68L74.31,15,72.73,14l4.71-8L79,6.91l-1.7,2.9h0L80,7.5l1.62.94-2.88,2.2-1.71,5.92Zm8.81-2.09c.26-.4.5-.89.13-1.19a.46.46,0,0,0-.65,0,.41.41,0,0,0,0,.09c-1.08,1.36.86,3.55-.85,5.72a2.23,2.23,0,0,1-3.09.61,1.76,1.76,0,0,1-.3-.24c-1.35-1.07-1.2-2.11-.28-3.44l1.44,1c-.4.59-.53,1-.17,1.24s.57.15.85-.21c1.1-1.4-.78-3.54.89-5.65A2.08,2.08,0,0,1,85,10.8a2,2,0,0,1,.32.25c1.39,1.1,1,2.28.29,3.39Zm1.7,11.11L93.4,19l1.25,1.67c1.13,1.51,1.12,2.63-.38,3.75a2,2,0,0,1-2.15.31h0a2,2,0,0,1-1,2.18c-1.85,1.38-2.92.69-3.91-.65Zm2.77.81c.28.38.63.39,1.31-.12s.8-.86.48-1.3l-.24-.32-1.84,1.37Zm3-2.4c.33.45.71.38,1.28-.05s.61-.8.37-1.12l-.24-.32-1.63,1.21Zm-.62,9.45,2.83-2.37-.2-.38-3.18,1.72-.89-1.65,8.22-4.44,1.08,2c.78,1.45.66,2.53-1.09,3.47a2.39,2.39,0,0,1-2.3.24l-3.51,3.18Zm4.09-3.35c.29.53.64.56,1.52.08,1.1-.59.86-1,.73-1.29l-.09-.15L95.1,29Zm-2.67,6.35L101.18,32l.7,1.77-8.67,3.44ZM94.66,42l.59-.15v0a1.7,1.7,0,0,1-1.07-1.21c-.31-1.18.3-2.13,4.13-3.15,2.23-.6,4.66-.92,5.25,1.31.55,2-1,2.72-2.54,3.17l-.45-1.7c.74-.24,1.44-.55,1.31-1s-.65-.5-3.07.14-3,.84-2.85,1.4.68.47,1.38.28l.42-.12-.16-.63,1.52-.4.62,2.36L95.06,43.5Zm1,6,3.94-.44-.12-1.1-3.94.44L95.35,45l9.28-1,.2,1.88-3.67.4.12,1.1L105,47l.2,1.85-9.28,1Zm.2,4.45h7.58V51.18h1.75v4.43h-1.75V54.34H95.87Z" fill="#e0d2f9"/><path d="M36.87,47.49s-.11-.18,0-.15h0C36.92,47.35,37.08,47.54,36.87,47.49Zm9.81-20.24s0,.07,0,.11l-.07,0c-.08.13,0,.2-.08.38a.52.52,0,0,1,.15.07c.11.15.17.27.27.42-.07.05-.27.13-.3.22s0,.13,0,.19a2.38,2.38,0,0,1,.38.11s.08.1.11.11.12,0,.19,0l-.07.3c-.1,0-.11-.07-.23,0s-.07.1-.11.11c.15.27,0,.2.38.23l.12.3h0c0,.16-.05.21,0,.37s.13.41.15.53,0,.18,0,.26.07,0,.08.08c.31-.12.09.06.3-.19,0,0,.07,0,.11,0s.09.1.12.11.18-.07.34,0,0,.19,0,.26,0,.11,0,.15a1,1,0,0,0,.79.3,1.08,1.08,0,0,1,.08-.19s.12,0,.15-.08v.42s.22.3.26.37.2,0,.3,0,.06-.15.08-.15c.34-.08.43.29.6.33s.17,0,.27,0,.05.17.11.19.11,0,.15,0,.07-.06.08-.07,0-.13,0-.19l-.27,0c-.06,0-.1-.2-.15-.22h-.07s0-.11,0-.15.09-.11.11-.15.15.05.19.11,0,.11,0,.15.12.1.15.15a1.76,1.76,0,0,1,.23,0c.12,0,.16-.18.33-.19s.4.18.68.1.14-.3.26-.37.32,0,.49-.08.1-.1.15-.12a.38.38,0,0,1,0-.15s.09,0,.11-.08c.18.06.4.18.6.07s.08-.16.12-.18.1,0,.15,0,.11-.14.15-.16l.26-.07a1.85,1.85,0,0,0,0-.23c0-.06-.15-.11-.16-.15s.05-.1,0-.19a.42.42,0,0,0,.11-.15.86.86,0,0,0,.45,0c.09,0,.06-.13.11-.19a2.54,2.54,0,0,1,.34-.23,1.27,1.27,0,0,1,0-.34c0-.08.15-.16.19-.22s0-.14.07-.23l-.11-.08s0-.07,0-.11c.3-.21.35-.33,0-.53.22-.11.41-.24.64-.34a.61.61,0,0,1,0-.19c-.05,0-.11-.1-.16-.11s-.24,0-.34-.07,0-.13,0-.19,0-.1-.07-.15.21,0,.15,0c.24,0,.67-.06.45-.38,0,0-.14,0-.15-.07s.06-.18,0-.3-.16-.11-.19-.15-.11-.15,0-.23c0-.25,0-.24.11-.37h.11a.84.84,0,0,1,0-.27l.22-.11a.85.85,0,0,1-.08-.42s.11-.12.12-.15-.06-.05,0-.11l-.15,0c-.1.32-.06.42-.27.15-.1,0-.08.05-.15.08v-.3c.3-.07.19,0,.34-.23,0,0,.07,0,.11,0s0,.13.08.15.41,0,.56,0a1.77,1.77,0,0,0,0-.23s-.13-.13-.15-.18,0-.21,0-.19v-.08s-.11-.1-.11-.11,0-.09,0-.11a.66.66,0,0,0,.44-.42l.08-.08c0-.08-.07-.14,0-.26s.14-.15.15-.23-.07-.17,0-.3.17-.2.18-.26,0-.18,0-.27c-.25-.14-.23-.08-.26-.45.06,0,0,0,0-.11h.08a3,3,0,0,0,0,.3s.21,0,.15,0a.7.7,0,0,1,.11-.23v-.11c0-.06-.11-.14-.15-.19l.11-.15a1.18,1.18,0,0,0,.11-.19c0-.18-.07-.33-.08-.41S58,20,58,19.79l-.08-.11c-.09-.42,0-.35-.42-.45,0,.08-.06.22-.07.3s0,0-.08,0a2.78,2.78,0,0,1-.37,0,1.42,1.42,0,0,0-.09-.64c-.1,0-.29-.12-.45-.07s-.07.1-.11.12a1.13,1.13,0,0,1,0,.26h-.07c0-.08,0-.12,0-.19s-.25-.17-.27-.3.1-.22.07-.41a2,2,0,0,0-.38-.49c-.21,0-.24.1-.34.15s-.26.1-.37.16c.06.24.21.7-.26.6-.17,0-.12-.15-.19-.3s-.11-.05-.12-.07c0-.18.09-.33,0-.49s-.19-.07-.3-.11-.11.07-.12.09h0c0,.11,0,.19,0,.27s-.06.07-.08.07-.31,0-.45,0-.18.18-.26.2-.27-.08-.42,0a3.58,3.58,0,0,0-.26.64s-.07,0-.11,0-.1-.13-.15-.15c-.35-.14-.33.15-.49.27a1.42,1.42,0,0,1-.22.07l0-.15s.17-.09.18-.15,0-.11,0-.15-.06,0-.07-.08h-.23c0,.06-.13.13-.15.19s0,.09,0,.12-.17.07-.18.11a.61.61,0,0,0,.07.42H51a.42.42,0,0,0-.15.3s.1.09.12.11,0,.13,0,.15.09,0,.12,0a1.58,1.58,0,0,0-.11.37h-.12c-.1-.2-.12-.13-.07-.45,0,0-.12-.1-.16-.11s-.26,0-.37,0-.06-.14-.12-.15-.18,0-.15,0-.1.16-.15.26-.07,0-.07,0,0,.18,0,.23-.19,0-.26.08-.15.59-.07.64.19,0,.26,0,0-.08,0-.15l.11,0a1.24,1.24,0,0,0,0,.27s-.06.07-.08.07-.3,0-.41,0l0,.08c-.06,0-.11,0-.19,0,0-.2.06-.32.11-.49s0,0,0-.08c-.18,0-.34-.07-.45.08a.5.5,0,0,0,0,.57c-.07.09-.2.2-.22.34s0,.14,0,.18a.65.65,0,0,1-.19,0,2.48,2.48,0,0,1,0,.27l.15,0s0,.16.07.19a1.61,1.61,0,0,0-.6.12c-.09.07.06.45,0,.6s-.15.16-.19.23a5.63,5.63,0,0,1-.48.72s-.13.07-.15.15c-.11.46.12.29.23.34l.19.15c-.07.14-.24.38-.11.6,0,0,.13.06.15.11s0,0,0,.11.28.22.49.22l-.15.12c-.37.11-.31-.05-.45.3a.82.82,0,0,0-.65-.33c0,.06-.06.07-.11.11a3,3,0,0,0,.16.42.91.91,0,0,0-.23.15c0,.05,0,.14-.07.19s-.1,0-.15,0a.7.7,0,0,0-.15.19v.15A.86.86,0,0,0,46.68,27.25ZM58,26.76a1.45,1.45,0,0,0-.67.23c0,.08,0,.18,0,.26s.21.13.26.19.08.25.16.3.16,0,.22,0,0,.07.08.07S58,28,58,28a1.18,1.18,0,0,0-.56,0c0-.18,0-.43-.12-.49s-.11,0-.15,0-.07.06-.07.08.08.24,0,.41-.54.52-.64.65,0,.07,0,.15l.34.11c-.43.11-.64.27-.45.68-.13.1-.45.45-.4.68,0,0,.14.12.15.15s0,.11,0,.15a4.45,4.45,0,0,0-.53.42c0,.07,0,.16,0,.23l.15,0s0,.1,0,.12-.23.23-.26.34.08.44-.07.49.12.22.12.22v0l.11.15a.63.63,0,0,0,.12.11c-.08.12-.27.32-.19.57,0,0,.1.07.12.11l.26,0v.38c0,.15,0,.3,0,.45s.19,0,.23.07,0,.13.08.15a1.35,1.35,0,0,0,.34.11,1.21,1.21,0,0,0,0,.38c0,.11.22.1.34.15s.1-.1.15-.15l.07-.15a1.38,1.38,0,0,0,.19.41c.14.1.27.06.45,0,0,0,0,.09,0,.12s-.15.15-.18.19l.08.18h.37c.06,0,.15.11.3.08s.12-.14.15-.16.11,0,.15,0c.22.3.08.33.53.41.13-.18.24-.56.6-.5,0,0,.11.14.16.15s.21-.08.37,0,.08.13.12.15.12,0,.19,0,0,.13.07.15a1.6,1.6,0,0,0,.68.18c.07,0,.1-.17.19-.19s.3.09.49,0,.21-.3.26-.42c.51.06.34,0,.64-.19.06-.05.13,0,.18-.08s.08-.14.12-.15.33,0,.49,0,.13-.12.18-.16,0-.16,0-.18-.18-.11-.26-.15a2.34,2.34,0,0,0,.38,0c.13,0,.46-.28.48-.42s-.17-.27,0-.34.24,0,.34,0a2.07,2.07,0,0,0,.34-.15.6.6,0,0,1,0-.19c-.26-.12-.31-.12-.57,0l0,.07c-.14,0-.11-.07-.19-.07l0-.19c.3,0,.45,0,.6-.16s.12-.41-.23-.52c0-.05,0-.07,0-.12s.14-.11.15-.15,0-.11,0-.15h.08v.15s.09,0,.11.08c.2-.07.54-.21.56-.42s-.36-.31-.56-.3a1,1,0,0,0,.07-.6l.22,0s.07-.06.08-.08c.06-.2,0-.19.11-.34l.18-.15s-.07.13-.07.15.07.16,0,.26-.16.13-.19.16a.54.54,0,0,1,0,.18c.19,0,.17.17.38,0s0-.12.07-.22.11,0,.15,0,.07.15.08.18.34-.09.41-.23a5.54,5.54,0,0,0,.11-.56c0-.06-.1-.12-.08-.26s.17-.3.19-.35c-.13,0-.16-.08-.3-.11,0,0,0-.1,0-.11l.19,0a.76.76,0,0,1,0-.3s.12-.09.15-.11c-.09-.19-.12-.3-.2-.49.08,0,.15,0,.23-.08s.08-.14.11-.15.23,0,.34,0,.12-.11.22-.11.29.23.35.41a.53.53,0,0,1,.15-.08,1.71,1.71,0,0,1,0-.45c0-.05,0-.1,0-.08v-.1l.38-.3a1.76,1.76,0,0,1,0-.23l-.08-.07,0-.08a.94.94,0,0,1-.37,0s-.09-.1-.12-.11a1.33,1.33,0,0,1,.23-.3,3.37,3.37,0,0,1-.16-.94c0-.15.25-.26.3-.38a1.26,1.26,0,0,0-.28-1.05c-.18-.08-.38.05-.56,0s0-.13-.08-.18-.24-.07-.34-.15-.25-.55-.38-.6-.08,0-.11,0c-.07.37-.06.36-.42.45a1.34,1.34,0,0,0-.07-.18S66,24,66,23.93s.08-.22,0-.38-.15-.11-.19-.15l0-.08a1.5,1.5,0,0,1,.3,0c.08,0,.13.2.23.23.48.12.37-.24.18-.38a2.36,2.36,0,0,0-.38-.22l-.07,0c0,.06,0,.1,0,.19-.18-.05-.25,0-.42-.07-.22.5-.14.35-.71.38l-.19.08s-.07,0,0,0-.13,0-.19,0-.05-.26-.26-.19c0,0-.09.15,0,.12s0,.18,0,.22c-.17.13-.15.08-.26.27a.88.88,0,0,1-.23-.07c-.14-.1-.07-.18,0-.16s.11-.08.08-.22-.14-.08-.16-.11,0-.1,0-.16l-.18,0a2.41,2.41,0,0,0,0,.6,2.28,2.28,0,0,0-.45,0c-.06,0-.17.18-.23.23a.54.54,0,0,0-.18,0,.93.93,0,0,1,0-.23.8.8,0,0,0-.46-.07,1.2,1.2,0,0,0-.11.12h-.07c-.27.26.15.32.3.41s.1.12.15.15a.83.83,0,0,0-.15.11.63.63,0,0,0-.64-.14c-.07,0-.13.13-.19.15s-.15,0-.23,0c0-.15-.12-.45-.3-.45s-.11.06-.19.08-.06.05-.07.07a1.31,1.31,0,0,0,0,.34,4.58,4.58,0,0,1-.79.2c-.06.15-.09.25-.15.38h-.08v-.08c-.06-.18-.25-.1-.37-.07a2,2,0,0,1-.22.57c-.33-.1-.25-.1-.49,0v.22l.11,0V26a3.38,3.38,0,0,0-.45,0c0,.09-.1.08-.08.23l.12.15C58.06,26.39,58,26.64,58,26.76ZM56.77,43.13c.4.09.23-.29.18-.41H56.8c0,.06-.14.13-.19.19h0a.41.41,0,0,1,0,.11S56.73,43.12,56.77,43.13Zm-14-20.45ZM37.32,47.41s-.11,0-.11-.08-.1.16-.07.27.06.06.07.11.1,0,.15,0-.07-.23-.07-.23S37.34,47.48,37.32,47.41ZM35.08,33.72c.24.05.34-.2.41-.34,0,0,.1.07.15.08-.12.26-.07.22,0,.45V34c0-.05,0,.1,0,.11,0,.23.36.2.56.19,0,0,0,.09,0,.11s-.28.21-.37.27,0,.12,0,.19a1.12,1.12,0,0,0,.26.22,1,1,0,0,0,.53-.12s.1-.14.15-.15.16,0,.27.07V35c-.47,0-.6.17-.34.53.2-.06.25,0,.45-.08,0,.12.05.37.16.41s.18,0,.26,0c.4,0,.41.23.68-.16a.86.86,0,0,0,.45,0l.07-.07a1,1,0,0,1,.34.07c.11,0,.15,0,.23,0s0-.18.07-.3a1.18,1.18,0,0,0-.19-.11V35.2c.13-.06.27-.15.38-.19A.69.69,0,0,1,40,35l.08.08c.19,0,.29-.1.41-.12s.22,0,.3,0,.11-.28.19-.38.27-.14.37-.23.11,0,.11,0c.06.35,0,.29.35.34.05-.11.14-.34.3-.34s0,0,.11,0,0,.14,0,.19.09.08.11.11.11,0,.15,0,.18-.3.23-.41c.42,0,.33,0,.48-.27a1.48,1.48,0,0,0,.42,0s.07-.06.07-.08,0-.18,0-.26.18-.13.23-.19,0-.18.11-.23.28-.1.34-.26,0-.18,0-.27a2.26,2.26,0,0,1,.11-.22c0-.29-.14-.32-.31-.42l-.15.19c.1,0-.11.08-.11.08,0-.2,0-.2.19-.34s.14,0,.22-.12.05-.1.08-.11.28,0,.41-.08,0-.15.07-.19,0-.12-.11-.19l-.19-.07s.07-.13.11-.15.22,0,.3,0,0-.12.08-.19.15-.07.18-.12a1.86,1.86,0,0,0,.15-.56c0-.06-.13-.11-.15-.15s0-.15,0-.27.05-.07.07-.07.11.06.15.07c.23.05.28-.08.38-.15a2.7,2.7,0,0,1,0-.49c-.18-.09-.26,0-.27-.3s.13-.24.15-.34a.62.62,0,0,0,0-.23c0-.33.09-.36,0-.67a.61.61,0,0,1,.19,0c.11-.25.1-.15,0-.42a.37.37,0,0,1-.15,0,2.37,2.37,0,0,1-.23-.3c.17-.13.28-.26.45-.38,0-.06,0-.12,0-.18s-.1-.12-.11-.15a3.29,3.29,0,0,1,0-.42l.3,0a.91.91,0,0,0,0-.23S45.9,25,45.89,25A1.46,1.46,0,0,0,45.7,25c.06-.18.18-.49,0-.57-.06,0-.12,0-.19,0a1.07,1.07,0,0,1-.07.19c-.19.33,0,0-.19.08a.89.89,0,0,0,0-.23l.07,0c0-.05,0,0,.08-.07a2.09,2.09,0,0,1-.08-.23,1.23,1.23,0,0,1-.37.12s-.1-.11-.12-.11-.11,0-.15,0-.11.17-.15.19-.11,0-.15,0c.13,0-.08-.49-.08-.49a1.41,1.41,0,0,0,.34-.19.88.88,0,0,1,0-.23,1.2,1.2,0,0,0-.42,0c0-.1,0-.08-.11-.15a1.57,1.57,0,0,1-.3.2c0,.38,0,.37.3.37a1.44,1.44,0,0,0-.11.42,1.12,1.12,0,0,0-.38-.34h0a1.68,1.68,0,0,1,0-.45c.08,0,.07,0,.11,0s.19-.09.23-.15,0-.16,0-.12-.06-.14-.08-.15c-.18-.09-.45,0-.6,0s-.16-.27-.27-.3h-.07c0,.05-.07,0-.09.05s0,.19,0,.26a.37.37,0,0,1-.37.12s-.08-.2-.19-.23a1,1,0,0,0-.3,0l0,.3-.18.23.11,0a1.4,1.4,0,0,1,.15.3s-.11,0-.15,0-.27-.43-.42-.49a3.38,3.38,0,0,0-.71-.1l-.15.11v.11s.06.1,0,.08a.3.3,0,0,1,0-.08h-.34a1.15,1.15,0,0,1-.26.53s-.11,0-.15,0a1.09,1.09,0,0,1-.08-.15c.26-.08-.42,0-.15,0a.37.37,0,0,0-.15,0l-.22.27c-.06.1,0,.31-.15.38a1.27,1.27,0,0,1-.26,0c-.19.49-.16.16-.46.3,0,0-.06.16-.11.19s-.11,0-.15,0l0,.08a.94.94,0,0,1-.49.08,2,2,0,0,1-.08.22c-.06.1-.2.09-.3.16s-.43.57-.52.6l-.22,0a2.68,2.68,0,0,0-.49.11,2.63,2.63,0,0,0,0,.49c-.09,0,0,.05-.08,0l-.07-.07a.29.29,0,0,0-.3.15.7.7,0,0,0,0,.38h.22c0,.43,0,.43-.37.41a.63.63,0,0,1-.11.12c0,.15,0,.22.08.37l-.23,0s0-.2-.37.08c0,.42-.14.56-.07,1l-.34.23c0,.07,0,.12,0,.19s.14.22.15.33a.64.64,0,0,1,0,.34l-.08,0a2.54,2.54,0,0,0,.09.72s.1,0,.11,0,0,.11,0,.15-.13.08-.15.12c-.12.2,0,.37,0,.6l-.07,0v.07a.51.51,0,0,0,0,.3s.09,0,.11.08v.07c.39,0,.4,0,.6-.23l.12,0s-.07.12-.08.15a1.7,1.7,0,0,0,0,.22.5.5,0,0,1,.12.08,1.5,1.5,0,0,1,0,.3c-.35-.16-.57-.13-.42.3,0,0,0,.08,0,.11s.18,0,.27,0S35.06,33.72,35.08,33.72Zm32.84,1.15h0ZM52.08,33.12h0ZM56.6,45.89s-.06,0-.08-.08-.1,0-.15,0-.08,0-.11.07a.89.89,0,0,1,0,.23C56.64,46.17,56.5,46.27,56.6,45.89ZM71.3,38.3c.06,0,.15,0,.23.07s0,.13.07.15-.12.33-.18.53a1,1,0,0,0-.34,0c-.08,0-.12.21-.19.27h-.11s-.07.09-.11.11,0,.12,0,.19.1.05.11.07,0,.12,0,.19h.23l0,.3h.08c0,.12.08.12,0,.26a.22.22,0,0,1,0,.08.37.37,0,0,1-.52.08s0-.16-.07-.19-.13,0-.19,0,0,0-.08,0,0,.18,0,.26.1.06.12.08c.18.14.18.25.15.52a.85.85,0,0,1-.52.08s-.08.06-.08.08,0,.13,0,.19.08.13,0,.18-.24,0-.34.08a3.66,3.66,0,0,0-.18.46h-.23l-.38-.19a.53.53,0,0,1,0,.57l.23.11s0,.07,0,.11-.11.1-.11.12.08.15.08.18,0,.06,0,.15-.1.11-.26.08-.22-.26-.49-.11-.1.32-.07.49,0,.09-.08.12-.25.11-.37.19c0,.41,0,.39-.38.49,0,0,0,.07,0,.12s.21.12.23.14,0,.14,0,.19-.08.11-.11.12c-.23.07-.25-.12-.34-.15s-.11,0-.15,0a2.05,2.05,0,0,1-.38.34h0s0,.17,0,.23-.29.15-.42.19c.08.11.25.35,0,.45,0,0-.08,0-.11,0s-.11.18-.19.23a1.51,1.51,0,0,1-.67.08c0,.07,0,.12,0,.19s-.16.11-.19.19,0,.24,0,.34H64.8s0,.07,0,.07a2.22,2.22,0,0,1-.72.16c0,.05,0,.1,0,.19s.14.24,0,.34a.63.63,0,0,1-.56-.07,3.4,3.4,0,0,1,.07-.34s-.11,0-.15,0-.2-.2-.27-.26h0c-.05,0-.07.08-.11.11a.88.88,0,0,1,0,.23s.12.11.19.11h0c0,.07,0,.18,0,.26s-.06.07-.08.08c-.27.09-.4,0-.63.15,0,0-.14.14-.19.16a.47.47,0,0,1-.23,0l0-.26.3-.12a.89.89,0,0,1,0-.23c-.14,0-.06-.08-.26,0l-.08.07s-.14,0-.18,0,0,.17-.12.27l-.18.11a.7.7,0,0,1-.34.12s0-.09-.08-.11a.38.38,0,0,0,0-.15c.05,0,.12-.07.15-.12v-.19a.72.72,0,0,1-.52-.07v-.11a.18.18,0,0,1,.07-.08s0-.16,0-.22-.11-.08-.12-.12,0-.08,0-.11-.13,0-.15,0,0,.11,0,.15-.16.12-.26.19l-.19,0a4.09,4.09,0,0,0,.07-.6c-.18.1-.38.23-.53,0,0,0,0-.09,0-.12s-.2-.06-.3-.14-.07,0-.08,0,0-.21,0-.3-.1,0-.11-.08,0-.31,0-.45a1.19,1.19,0,0,1-.27-.07c-.16-.1,0-.2,0-.38s-.13,0-.15-.07c-.14-.21.08-.3.11-.42s0-.11,0-.15a1.48,1.48,0,0,1-.42,0c0-.07,0,0,0-.07,0-.19-.08-.48,0-.6s.15-.07.19-.12,0-.1,0-.11a.72.72,0,0,0-.19,0A3.36,3.36,0,0,0,58,43c0-.06-.14-.06-.19-.11s0-.13-.08-.19a1.44,1.44,0,0,0-.27-.22,1.77,1.77,0,0,0,0-.23l.12-.19s0-.11,0-.15.2-.1.22-.15,0-.1,0-.11c-.12-.3-.35-.34-.23-.68v-.07s.11,0,.15,0,.19,0,.11,0a1.39,1.39,0,0,1,.19.15c0-.15-.12-.57,0-.64-.24-.19-.21-.17-.12-.49.1,0,.11-.08.23,0s.15.23.23.26h.07s0-.07,0-.15-.12-.26-.08-.41.09-.11.11-.16a.61.61,0,0,0,.19,0s0-.15,0-.15a.57.57,0,0,1-.35-.14c0-.07,0-.09,0-.16.3-.14.12-.13.42,0,0-.18.11-.51.25-.6s.31,0,.38-.15,0-.19,0-.3.1-.07.12-.11.12,0,.18,0,.07.11.08.11c.28.09.25,0,.42.18a2.1,2.1,0,0,1,.15.3h.08s.1-.09.11-.11,0-.07,0-.11,0-.15,0-.15-.24-.1-.26-.15,0-.14,0-.19h.22l.08-.57a.57.57,0,0,0,.22,0s.11.09.12.12,0,.12,0,.18l-.12.08s0,.11,0,.15l.3-.08c-.1-.19-.13-.28,0-.45a.44.44,0,0,1,.08-.11c.1,0,.13.06.26,0s.09-.1.11-.11a4.72,4.72,0,0,0,.45-.16c.06,0,.16-.17.23-.19a2.76,2.76,0,0,1,.49.07c0,.06,0,0,.08.08s-.06.06,0,.07H62.7v.08l.11,0c.45,0,.17-.56.9-.35,0-.14.07-.28.11-.42s.22,0,.3-.11,0-.15,0-.19.08,0,.11-.08l.12,0c0,.28,0,.26-.15.38,0,0,.06.07.07.07s.2-.06.34,0,.1.11.12.11a2.63,2.63,0,0,0,.49,0,.69.69,0,0,0,.23.33h.11c0-.06,0-.12,0-.18s-.38-.13-.46-.26,0-.17,0-.27a.64.64,0,0,0,.19-.08s0-.15.08-.18c.38-.27.47.16.38.48a.43.43,0,0,1,.11.12l.08,0a1.57,1.57,0,0,1,0-.53s.06,0,.07-.08a8.5,8.5,0,0,1,.87.07c.05,0,.08.14.11.19.23-.19.34-.21.49.07a6.83,6.83,0,0,1,.11-.79l.3,0s0-.07.07-.08l0-.15c0-.06.11-.1.14-.15h.15a1.39,1.39,0,0,1,0,.41l0,0c.08,0,.16-.12.3-.08s0,.07.07.08,0,.12,0,.15l.12,0s.07-.15.11-.18.07,0,.11,0,0-.1,0-.15c.09.11.31.25.34.41s0,.11,0,.15h-.26l0,.07a.5.5,0,0,1-.38,0,2.82,2.82,0,0,1,.09.57l-.23,0a3.79,3.79,0,0,0,0,.41h.11a1.35,1.35,0,0,1,.11-.34,2.19,2.19,0,0,0,.72-.08s.12-.11.15-.11.09,0,.11,0,.1-.21.15-.23H70s.06.09,0,.19a.67.67,0,0,1-.11.07s0,.21,0,.15l0,.08c.06,0,.12,0,.19,0s.1-.17.15-.19.12,0,.18,0,.15.11.23.19c0-.08,0-.15,0-.23s-.09-.07-.11-.11v-.23l.19-.08.07-.07c.19,0,.31.2.15.3,0,0,0,.17,0,.11a1.88,1.88,0,0,0,.12.3s.1,0,.11.08,0,.13,0,.18l-.3.16,0,.18c.07,0,.09,0,.15,0s.06.14.12.19a1.14,1.14,0,0,1-.34.19s.14.33.15.34l.53.1s0,.12,0,.16S71.08,38.16,71.3,38.3ZM61,38ZM58.2,48.47c.07,0,.24.1.27.18s0,.09,0,.12-.17.15-.19.23a1.61,1.61,0,0,0,0,.22c0,.06-.1.1-.07.23s.11.11.11.15,0,.06,0,.15c-.29,0-.21,0-.42-.11,0,0-.08.08-.11.08s.05.13.07.15a.6.6,0,0,0,.19,0c0,.05,0,0,.08.07s0,.15,0,.23-.14.11-.15.15a1.54,1.54,0,0,0,0,.3c-.48.14-.53.36-1,.12v.11H57c0,.06.05,0,.08.08s0,.26-.11.38a1.05,1.05,0,0,0-.11.07.26.26,0,0,0,.11.27c.06,0,0,.07,0,.07a.47.47,0,0,1-.33.3c-.25,0-.18-.15-.3-.22s-.09,0-.19,0,0,.11,0,.15.25.15.34.19v.33c-.16.08-.33.23-.53.08,0,0,0-.16-.11-.18s-.11,0-.15,0,0,.21,0,.41a.75.75,0,0,0-.07.12c-.14,0-.21.05-.34,0s-.09-.14-.15-.15h-.12s-.11.15-.18.19-.13,0-.19,0-.17.29-.45.23C54,53.18,54,53,53.9,53s-.12,0-.15,0a1.06,1.06,0,0,0,0,.53c-.19.09-.37.21-.52,0,0-.06,0-.12,0-.16s-.13,0-.15-.07c-.21.38-.29.42-.68.19,0-.06,0-.08,0-.15s.21-.2.34-.3c0,0-.23-.33,0-.33,0-.06,0-.18,0-.19s-.13,0-.15,0v-.11c0-.08,0-.07.07-.12s.18-.06.22-.11a.92.92,0,0,0,.08-.27c.46,0,.41,0,.6.26a.49.49,0,0,1,0,.11s.21,0,.15,0,.13,0,.19,0,0-.06.08-.07c-.17-.16-.09-.09-.16-.34l.11-.08a1.82,1.82,0,0,0,0-.33c-.32,0-.3-.09-.33.34,0,0-.09,0-.12,0s-.11-.17-.15-.19-.11,0-.15,0-.1-.11-.11-.11a1.13,1.13,0,0,0-.68.27c0,.08,0,.19-.07.26s-.29.17-.3.3,0,.08,0,.15l.19,0s0,0,0,.08-.07.15,0,.18-.08.06-.15,0-.1-.11-.12-.11c-.49-.13-.11.4-.11.42s0,.12,0,.18-.11.11-.15.12-.21-.06-.34,0a2.18,2.18,0,0,1-.22.12c-.41.07-.44-.08-.79.08-.13-.1-.17-.2-.42-.18s-.42.15-.64.08c-.06,0-.16-.25-.19-.3s-.09,0-.15,0,0,.24,0,.45c-.05,0-.09,0-.11.07s-.13,0-.19,0-.23-.25-.53-.15-.16.3-.49.16c0,0-.34-.33-.34-.34s0-.12,0-.19c-.22,0-.92-.17-1-.33s0-.18,0-.26a2.33,2.33,0,0,1-.53-.07s-.08-.13-.11-.15-.08,0-.12,0a.41.41,0,0,0-.07.11c-.38-.1-.23,0-.34-.33-.07,0-.13,0-.19,0s-.05.12-.11.16v0c-.1,0-.18,0-.23,0a1.81,1.81,0,0,0-.56.12,1.77,1.77,0,0,0-.35-.61c-.07,0-.13,0-.19,0s-.16-.21-.26-.23a1.61,1.61,0,0,0-.38.08c0-.08.09-.14.07-.22s-.17-.16-.19-.23,0-.17,0-.22a1.07,1.07,0,0,0-.22-.15c0-.05,0-.23,0-.23s-.24.16-.3.19a1,1,0,0,0-.83-.14,2.67,2.67,0,0,0-.11-.34s-.1,0-.15,0c-.21-.08-.18-.3-.16-.52-.45.24-.7,0-1-.22-.09.07-.2.24-.3.27s-.11,0-.15,0a1,1,0,0,1-.12-.42l-.08-.11c0-.09.09-.12,0-.23s-.18-.1-.23-.14a3.19,3.19,0,0,1-.3-.42c-.12.11-.25.17-.37.27s-.13.19-.19.23-.12,0-.19,0,0-.15,0-.19.13-.08.16-.11,0-.1,0-.12.23-.17.41-.23a1.57,1.57,0,0,1-.19-.26s-.12-.05-.15,0a.3.3,0,0,0,0,.08,1.24,1.24,0,0,0-.57.08s0-.3,0-.26,0-.07,0-.15,0-.08,0-.08a.57.57,0,0,0,.11-.11s.11,0,.15,0,.09.11.11.15c.28-.08,0-.3-.11-.38h-.15s0,.14-.08.15-.06-.06-.11,0a2.06,2.06,0,0,1,.11-.18c0-.36-.34-.46-.53-.6.15-.14-.16-.57-.23-.6s-.18,0-.27,0,0-.1,0-.11h-.08c-.1,0-.19-.25-.3-.3h0a3.49,3.49,0,0,1,0-.79,2.63,2.63,0,0,0-.08-.3c0-.08-.21-.13-.23-.23s.12-.24.07-.45-.18-.12-.3-.22-.06-.19-.11-.27-.38-.2-.53-.3l0-.15c-.09,0,.26,0,.12,0,0,0,.06.07.07.07s.07-.06.11,0c0-.14.06-.14,0-.27s-.11-.09-.11-.11a1.4,1.4,0,0,1,.15-.49c.08,0,.18,0,.26,0s.08.09.12.11,0-.1.07-.11,0-.18,0-.26-.09-.06-.11-.08-.12-.07-.12-.07-.07.13-.15.15-.18,0-.22,0-.08-.18,0-.3a4,4,0,0,1,.6-.57s0-.07,0-.11-.29-.22-.46-.26c0-.33-.15-.85,0-1s.22,0,.3-.08v-.08c.09-.27.15-.3.53-.3.11-.23.12-.29.41-.34,0,0,0-.07,0-.08h-.23s-.11-.09-.12-.11a1.24,1.24,0,0,1,.15-.6c.09-.06.22,0,.34,0s0-.11.07-.15a.77.77,0,0,1,.75-.31.57.57,0,0,1,0,.22l-.07.12c-.07.09-.2.07-.34.11l-.07.12s.11,0,.07.07.14,0,.19,0,0-.09,0-.11.22,0,.3-.12,0-.21.07-.26l.11,0a2.34,2.34,0,0,1,.27,0s0,0,.07.08a1.09,1.09,0,0,0,0,.26h.19s.1-.07.11-.11-.07-.21,0-.34l.11-.12c.17-.33,0-.35.45-.26a.76.76,0,0,0,0,.3s.16,0,.19,0l0,.18s.17,0,.11,0l.19,0v-.12c-.11,0-.13.07-.23,0s-.1-.14,0-.11,0-.1,0-.08,0-.09,0-.15.53-.17.71-.27a1.1,1.1,0,0,0,.3-.34.88.88,0,0,0,.23,0c0,.06,0,.06,0,.08v.15s.05,0,.08,0,.09,0,.11,0,0-.1.08-.11.14,0,.18-.08,0-.09,0-.11a1.78,1.78,0,0,1,.6-.16s.12.15.15.15.06,0,.15,0v-.15h-.15c.06,0-.11,0-.11,0l0-.15c0-.23-.15-.18.07-.38,0,0,0-.07,0-.07a1.61,1.61,0,0,1,.53.07s.07.13.11.15.12-.11.15-.12.14,0,.19,0,.07.06.07.08a1.5,1.5,0,0,1,0,.3.85.85,0,0,1,.19-.3,1,1,0,0,0,.72.11s.09-.18.15-.19.18,0,.26,0l0-.15c0,.06,0-.12,0-.12s.06-.07.07-.07.12,0,.16,0,0,0,.07,0a.85.85,0,0,0,.12.38h.11A1.74,1.74,0,0,0,45,35a3.63,3.63,0,0,1,.57,0c.07,0,.1.17.15.19s.07-.06.15,0a2,2,0,0,1,0-.34c0-.09.17-.07.27-.11s0-.19-.08-.34.06,0,.07-.08.19,0,.34,0c0,0,0,.13,0,.18s-.37.27-.07.19l0-.11a1.63,1.63,0,0,0,.38,0c.11-.09.22-.18.34-.26s.21.13.3.15.18-.06.26-.08.07-.06,0-.08c-.19-.09-.09-.26,0-.34l0-.07a.56.56,0,0,1,.22,0c.2.71.44,0,.83.15,0,0,.19.18.23.22s.29-.24.3-.27,0-.58.19-.68a.94.94,0,0,1,.6,0s.09.17.15.19.07,0,.11,0,.26-.3.56-.23c0,0,.12.1.15.11s.12-.07.19,0,.14.29.12.49c0,0,0,.06.08.07s.16,0,.11,0,.13,0,.19,0,0-.16,0-.19.1,0,.11-.08v-.49a.44.44,0,0,0,.17-.08s.08,0,.12,0,.22.31.27.49c0,0,.11,0,.15,0s.05-.17.11-.19H53s.11,0,.15,0,0,.07.08.08c.07.3.06.25-.22.41,0,0,0,.11.07.08a.44.44,0,0,1,.08.11l.15,0a1.55,1.55,0,0,1,.07-.23c.07-.1.08-.05.19-.11s.13,0,.15,0a1.16,1.16,0,0,0,0,.18,1,1,0,0,1-.26.27,3.55,3.55,0,0,1,.19.71l.23,0s0-.17,0-.18-.1-.09-.11-.12a1.07,1.07,0,0,0,.07-.19.58.58,0,0,1,.64.34c.31-.07.26,0,.23-.34.33,0,.48,0,.3.3l-.12,0c0,.3.11.54-.1.67,0,0,.06,0,0,.08.22.06.2.08.34,0s0,0,.12,0c-.07-.18-.25-.73.22-.57,0,0,0,.07.07.08s.07.31.16.37.14,0,.19.08a.81.81,0,0,1,0,.22,1.23,1.23,0,0,1,.41.34V36s-.09.11-.11.12c-.19,0-.37-.11-.53,0a.58.58,0,0,0,0,.19h0v.07h.3s0,.14.08.15,0,0,0,0a1.43,1.43,0,0,0-.12.11c-.06.18.07.14.08.27s-.14.24-.15.3.08.1.08.11-.07.19-.07.23,0,.07,0,.07-.19,0-.27,0c0-.15.08-.46,0-.53s-.11,0-.15,0c0,.22,0,.38,0,.6s.16.15.19.23,0,.11,0,.15-.07,0-.08,0-.15.12-.3.19a.2.2,0,0,1,0,.11c.45-.23.45-.08.61.3-.14.1-.22.2-.42.08,0,0-.06-.11-.07-.11s-.06.06-.11,0a.88.88,0,0,1,0,.23s-.11,0-.12.08l.08.11c.1,0,.34-.25.52-.19s0,.06.08.07c0,.18.08.51-.26.42l-.08-.08c-.05,0-.22.05-.15.08s.37.17.35.38c0,.05-.14.14-.15.19a1.62,1.62,0,0,0,0,.22,1,1,0,0,1,.34.22c0,.06,0,.1,0,.15s.17.11.19.19-.11.16-.07.3l.15.08c.05.07,0,.15,0,.26a.58.58,0,0,0-.15.11c-.08,0-.12,0-.19,0s0-.16-.23-.15a1.62,1.62,0,0,0-.37.19c.12.41.12.57.5.64-.1.12-.16.26-.3.34h0s0,.09,0,.11l0,0c.06.05,0,.12.07.22h.08v-.07s.16-.1.19-.12c-.06-.34,0-.57.41-.42.16.07.21.25.26.42s.08.13,0,.37c.06.06.21.14.23.23,0,.25-.16.21-.19.3s0,.3,0,.41-.1.06-.11.08-.11.05-.15,0,0-.09-.08-.12-.11,0-.15,0l.08.22c-.07.05,0,.08,0,.16a.41.41,0,0,1-.11.07c0,.13,0,.16.08.3-.32.3-.28.2-.3.68.1,0,.28-.1.33-.19s.16-.55,0-.6.19-.26.19-.26l.18.07a.51.51,0,0,1,0,.45c.17,0,.26,0,.46,0,.08.18.26.5,0,.64s-.24-.2-.41-.26-.16,0-.23,0l0,.11a1.22,1.22,0,0,1,.07.38c0,.08-.15.32-.14.45s.08.12,0,.12.06,0,.15,0,.09-.11.11-.11.21,0,.3,0,.19-.55.22-.68c.31,0,.28-.1.41.18,0,0,0,.11,0,0a1.69,1.69,0,0,0,0,.45s.06,0,.07.08h.12c.13,0,.26-.26.49-.12s-.14.62-.15.68,0,.18,0,.15v0c0,.16-.26.19-.22.42,0,0,.1.11.11.15s.06.3.08.37l.07-.11c.12-.09.23-.32.45-.27,0,0,.09.07.12.07A4.4,4.4,0,0,1,58.2,48.47ZM53.66,37.4h0ZM55.93,47Zm0-7.35a1.7,1.7,0,0,0-.19.19h0c.06.13.06.35.34.26,0,0,.07-.1.11-.12a.54.54,0,0,1,0-.18,1.06,1.06,0,0,0-.15-.15S56,39.62,56,39.6Zm.31,6.26h0Z" fill="#fff"/></svg>