<svg xmlns="http://www.w3.org/2000/svg" viewBox="0 0 213.61 126.48"><path d="M6.78,126.48,31,107.3a1.52,1.52,0,0,0,.24-2.13,1.42,1.42,0,0,0-.38-.35L.71,86a1.52,1.52,0,0,1,.6-2.79l28.71-4a1.52,1.52,0,0,0,1.3-1.71A1.69,1.69,0,0,0,31,76.8L4.91,43.68a1.51,1.51,0,0,1,.25-2.13,1.53,1.53,0,0,1,1.46-.24L48.4,56.55a1.51,1.51,0,0,0,2-1.8L42.56,24.66a1.51,1.51,0,0,1,2.35-1.61l27.67,19.8a1.52,1.52,0,0,0,2.11-.35,1.53,1.53,0,0,0,.28-.77L78.1,1.4A1.51,1.51,0,0,1,80.9.72l21.47,34.35a1.51,1.51,0,0,0,2.09.48,1.6,1.6,0,0,0,.44-.42L123.68,8a1.52,1.52,0,0,1,2.11-.39,1.56,1.56,0,0,1,.63,1L132,38.86a1.51,1.51,0,0,0,1.76,1.22,1.43,1.43,0,0,0,.57-.23L176,12.12a1.51,1.51,0,0,1,2.1.42,1.53,1.53,0,0,1,.11,1.48L159.7,53.65a1.52,1.52,0,0,0,.74,2,1.55,1.55,0,0,0,1.08.08l33-10a1.52,1.52,0,0,1,1.66,2.35L175.4,75.9a1.53,1.53,0,0,0,1.07,2.42l35.77,3.42a1.52,1.52,0,0,1,1.36,1.66,1.49,1.49,0,0,1-.7,1.13L181,104.68a1.53,1.53,0,0,0-.47,2.1,1.51,1.51,0,0,0,.47.47l30.49,19.23Z" fill="#522d80"/></svg>